<?xml version="1.0" encoding="utf-8"?>
<!-- Generator: Adobe Illustrator 24.0.1, SVG Export Plug-In . SVG Version: 6.00 Build 0)  -->
<svg version="1.1" id="Layer_1" xmlns="http://www.w3.org/2000/svg" xmlns:xlink="http://www.w3.org/1999/xlink" x="0px" y="0px"
	 viewBox="0 0 300 300" style="enable-background:new 0 0 300 300;" xml:space="preserve">
<path d="M3.17,234.97l93.35,53.79v-43.33L40.64,213.2V87.61l55.68-32.23V12.05L3.17,65.84V234.97z M202.65,12.05v43.33l55.68,32.23
	V213.2l-55.68,32.23v43.33L296,234.97V65.84L202.65,12.05z"/>
<g>
	<path d="M183.01,196.97l-4.26-15.08c-31.89,28.2-58.42,2.24-63.25-5.21l2.46-1.52c1.09-0.67,1.72-1.89,1.66-3.16
		c-0.07-1.28-0.82-2.42-1.98-2.97l-22.06-10.63c-0.48-0.23-1-0.35-1.52-0.35c-0.64,0-1.28,0.18-1.84,0.52
		c-1.02,0.63-1.64,1.73-1.66,2.92l-0.38,24.48c-0.02,1.28,0.66,2.47,1.77,3.1c0.54,0.3,1.13,0.46,1.73,0.46
		c0.64,0,1.28-0.17,1.84-0.52l1.18-0.73c20.22,32.8,66.63,36.02,91.75,14.6C185.82,201.86,183.79,199.73,183.01,196.97z"/>
	<path d="M108.54,158.5c-2.59-14.06,6.74-42.64,37.71-46.01v0.37c0,1.28,0.7,2.46,1.82,3.07c0.52,0.29,1.11,0.43,1.68,0.43
		c0.66,0,1.31-0.18,1.89-0.55l20.63-13.18c1.01-0.64,1.62-1.76,1.62-2.95c0-1.2-0.61-2.31-1.62-2.95l-20.64-13.18
		c-0.57-0.37-1.23-0.55-1.89-0.55c-0.58,0-1.16,0.14-1.68,0.43c-1.12,0.61-1.82,1.79-1.82,3.07v3.86
		c-30.08-0.13-62.07,28.31-60.01,66.67c0,0,4.66-4.52,7.82-4.52C96.73,152.51,97.2,153.03,108.54,158.5z"/>
	<path d="M213.72,177.85c-0.26-1.25-1.19-2.26-2.41-2.63l-2.52-0.76c7.42-20.78,5.01-56.64-29.59-76.67
		c0.13,0.62,0.24,1.24,0.24,1.89c0,3.1-1.56,5.95-4.17,7.62l-11.92,7.61c10.56,3.05,34.68,21.86,24.24,53.15l-1.51-0.46
		c-0.33-0.1-0.67-0.15-1.01-0.15c-0.9,0-1.79,0.35-2.45,1c-0.91,0.9-1.26,2.22-0.92,3.45l6.65,23.56c0.32,1.15,1.21,2.05,2.36,2.4
		c0.33,0.1,0.67,0.15,1.01,0.15c0.82,0,1.64-0.29,2.28-0.85l18.58-15.94C213.54,180.4,213.98,179.1,213.72,177.85z"/>
</g>
</svg>
